# Blender v2.79 (sub 0) OBJ File: 'Round.blend'
# www.blender.org
mtllib Round.mtl
g Round_Round.002
v 0.000000 0.150000 0.000000
v 0.000000 0.150000 0.008100
v 0.014703 0.149278 0.001933
v -0.014703 0.149278 0.001933
v -0.014703 0.149278 0.006250
v 0.014703 0.149278 0.006250
v 0.029264 0.147118 0.002579
v 0.029264 0.147118 0.005632
v -0.029264 0.147118 0.005632
v -0.029264 0.147118 0.002579
v 0.043543 0.143541 0.001933
v -0.043543 0.143541 0.006250
v -0.043543 0.143541 0.001933
v 0.043543 0.143541 0.006250
v 0.057402 0.138582 0.008100
v -0.057402 0.138582 0.000000
v 0.057402 0.138582 0.000000
v -0.057402 0.138582 0.008100
v -0.070709 0.132288 0.001933
v 0.070709 0.132288 0.001933
v 0.070709 0.132288 0.006250
v -0.070709 0.132288 0.006250
v 0.083335 0.124720 0.005632
v -0.083335 0.124720 0.005632
v -0.083335 0.124720 0.002579
v 0.083335 0.124720 0.002579
v -0.095159 0.115951 0.006250
v -0.095159 0.115951 0.001933
v 0.095159 0.115951 0.001933
v 0.095159 0.115951 0.006250
v -0.106066 0.106066 0.000000
v -0.106066 0.106066 0.008100
v 0.106066 0.106066 0.008100
v 0.106066 0.106066 0.000000
v 0.042750 0.103208 0.040259
v -0.042750 0.103208 0.040259
v -0.115951 0.095159 0.006250
v 0.115951 0.095159 0.001933
v -0.115951 0.095159 0.001933
v 0.115951 0.095159 0.006250
v 0.000000 0.085500 0.052430
v -0.124720 0.083335 0.005632
v 0.124720 0.083335 0.005632
v 0.124720 0.083335 0.002579
v -0.124720 0.083335 0.002579
v 0.132288 0.070709 0.001933
v -0.132288 0.070709 0.006250
v 0.132288 0.070709 0.006250
v -0.132288 0.070709 0.001933
v 0.060458 0.060458 0.052430
v -0.060458 0.060458 0.052430
v -0.138582 0.057402 0.008100
v 0.138582 0.057402 0.008100
v -0.138582 0.057402 0.000000
v 0.138582 0.057402 0.000000
v -0.143541 0.043543 0.001933
v 0.143541 0.043543 0.001933
v -0.143541 0.043543 0.006250
v 0.143541 0.043543 0.006250
v -0.103208 0.042750 0.040259
v 0.103208 0.042750 0.040259
v -0.147118 0.029264 0.005632
v 0.147118 0.029264 0.002579
v -0.147118 0.029264 0.002579
v 0.147118 0.029264 0.005632
v -0.011184 0.027000 -0.105983
v 0.011184 0.027000 -0.105983
v -0.149278 0.014703 0.006250
v 0.149278 0.014703 0.006250
v 0.149278 0.014703 0.001933
v -0.149278 0.014703 0.001933
v 0.027000 0.011184 -0.105983
v -0.027000 0.011184 -0.105983
v -0.150000 0.000000 0.008100
v 0.085500 -0.000000 0.052430
v -0.000001 0.000001 -0.129247
v -0.085500 0.000000 0.052430
v 0.150000 -0.000000 0.008100
v 0.150000 -0.000000 0.000000
v -0.150000 0.000000 0.000000
v -0.027000 -0.011184 -0.105983
v 0.027000 -0.011184 -0.105983
v -0.149278 -0.014703 0.006250
v -0.149278 -0.014703 0.001933
v 0.149278 -0.014703 0.001933
v 0.149278 -0.014703 0.006250
v -0.011184 -0.027000 -0.105983
v 0.011184 -0.027000 -0.105983
v -0.147118 -0.029264 0.005632
v 0.147118 -0.029264 0.005632
v 0.147118 -0.029264 0.002579
v -0.147118 -0.029264 0.002579
v 0.103208 -0.042750 0.040259
v -0.103208 -0.042750 0.040259
v 0.143541 -0.043543 0.001933
v -0.143541 -0.043543 0.006250
v 0.143541 -0.043543 0.006250
v -0.143541 -0.043543 0.001933
v -0.138582 -0.057402 0.000000
v 0.138582 -0.057402 0.008100
v -0.138582 -0.057402 0.008100
v 0.138582 -0.057402 0.000000
v 0.060458 -0.060458 0.052430
v -0.060458 -0.060458 0.052430
v 0.132288 -0.070709 0.001933
v 0.132288 -0.070709 0.006250
v -0.132288 -0.070709 0.006250
v -0.132288 -0.070709 0.001933
v 0.124720 -0.083335 0.002579
v -0.124720 -0.083335 0.005632
v 0.124720 -0.083335 0.005632
v -0.124720 -0.083335 0.002579
v -0.000000 -0.085500 0.052430
v -0.115951 -0.095159 0.006250
v -0.115951 -0.095159 0.001933
v 0.115951 -0.095159 0.001933
v 0.115951 -0.095159 0.006250
v 0.042750 -0.103208 0.040259
v -0.042750 -0.103208 0.040259
v 0.106066 -0.106066 0.008100
v -0.106066 -0.106066 0.008100
v 0.106066 -0.106066 0.000000
v -0.106066 -0.106066 0.000000
v 0.095159 -0.115951 0.006250
v 0.095159 -0.115951 0.001933
v -0.095159 -0.115951 0.006250
v -0.095159 -0.115951 0.001933
v 0.083335 -0.124720 0.005632
v -0.083335 -0.124720 0.002579
v 0.083335 -0.124720 0.002579
v -0.083335 -0.124720 0.005632
v -0.070709 -0.132288 0.006250
v -0.070709 -0.132288 0.001933
v 0.070709 -0.132288 0.006250
v 0.070709 -0.132288 0.001933
v -0.057402 -0.138582 0.000000
v -0.057402 -0.138582 0.008100
v 0.057402 -0.138582 0.008100
v 0.057402 -0.138582 0.000000
v 0.043543 -0.143541 0.006250
v -0.043543 -0.143541 0.006250
v -0.043543 -0.143541 0.001933
v 0.043543 -0.143541 0.001933
v -0.029264 -0.147118 0.002579
v 0.029264 -0.147118 0.005632
v 0.029264 -0.147118 0.002579
v -0.029264 -0.147118 0.005632
v 0.014703 -0.149278 0.001933
v -0.014703 -0.149278 0.001933
v 0.014703 -0.149278 0.006250
v -0.014703 -0.149278 0.006250
v -0.000000 -0.150000 0.000000
v 0.000000 -0.150000 0.008100
vn -0.0000 -0.6528 -0.7576
vn 0.6528 0.0000 -0.7576
vn -0.6528 0.0000 -0.7576
vn -0.4616 -0.4616 -0.7576
vn 0.0000 0.6528 -0.7576
vn 0.4616 -0.4616 -0.7576
vn 0.4616 0.4616 -0.7576
vn -0.4616 0.4616 -0.7576
vn -0.6540 0.1301 -0.7452
vn 0.3704 -0.5544 -0.7452
vn 0.5544 0.3704 -0.7452
vn -0.1301 -0.6540 -0.7452
vn 0.6540 0.1301 -0.7452
vn -0.5544 0.3704 -0.7452
vn 0.5544 -0.3704 -0.7452
vn 0.6540 -0.1301 -0.7452
vn -0.1301 0.6540 -0.7452
vn 0.1301 0.6540 -0.7452
vn 0.1301 -0.6540 -0.7452
vn 0.3704 0.5544 -0.7452
vn -0.3704 -0.5544 -0.7452
vn -0.5544 -0.3704 -0.7452
vn -0.6540 -0.1301 -0.7452
vn -0.3704 0.5544 -0.7452
vn 0.0491 0.9988 0.0000
vn -0.7410 0.6716 0.0000
vn 0.9040 0.4276 0.0000
vn -0.4276 0.9040 0.0000
vn -0.4276 -0.9040 0.0000
vn 0.9988 -0.0491 0.0000
vn 0.0491 -0.9988 0.0000
vn -0.9040 -0.4276 0.0000
vn 0.9415 -0.3369 0.0000
vn -0.9415 -0.3369 0.0000
vn 0.6716 -0.7410 0.0000
vn 0.4276 0.9040 0.0000
vn 0.7410 -0.6716 0.0000
vn -0.7410 -0.6716 0.0000
vn 0.3369 0.9415 0.0000
vn -0.9988 0.0491 0.0000
vn -0.3369 -0.9415 0.0000
vn -0.0491 -0.9988 -0.0000
vn -0.6716 0.7410 0.0000
vn -0.3369 0.9415 0.0000
vn 0.6716 0.7410 0.0000
vn -0.6716 -0.7410 0.0000
vn -0.9988 -0.0491 0.0000
vn 0.9988 0.0491 0.0000
vn 0.9040 -0.4276 0.0000
vn 0.4276 -0.9040 0.0000
vn 0.7410 0.6716 0.0000
vn 0.9415 0.3369 0.0000
vn -0.9040 0.4276 0.0000
vn -0.0491 0.9988 0.0000
vn -0.9415 0.3369 0.0000
vn 0.3369 -0.9415 0.0000
vn 0.9700 0.2430 0.0000
vn -0.8577 -0.5141 0.0000
vn -0.2430 0.9700 0.0000
vn -0.2430 -0.9700 0.0000
vn -0.5957 0.8032 0.0000
vn -0.5141 0.8577 0.0000
vn -0.8032 0.5957 0.0000
vn 0.9700 -0.2430 0.0000
vn 0.8032 0.5957 0.0000
vn 0.1467 0.9892 0.0000
vn -0.9700 0.2430 0.0000
vn 0.5141 -0.8577 0.0000
vn 0.9892 -0.1467 0.0000
vn 0.2430 -0.9700 0.0000
vn 0.2430 0.9700 0.0000
vn -0.1467 0.9892 0.0000
vn 0.9892 0.1467 0.0000
vn -0.9700 -0.2430 0.0000
vn -0.9892 -0.1467 0.0000
vn 0.8032 -0.5957 0.0000
vn -0.5141 -0.8577 0.0000
vn -0.9892 0.1467 0.0000
vn -0.1467 -0.9892 0.0000
vn 0.8577 -0.5141 0.0000
vn -0.8577 0.5141 0.0000
vn 0.5141 0.8577 0.0000
vn 0.8577 0.5141 0.0000
vn -0.8032 -0.5957 0.0000
vn 0.1467 -0.9892 0.0000
vn 0.5957 0.8032 0.0000
vn -0.5957 -0.8032 0.0000
vn 0.5957 -0.8032 0.0000
vn 0.6380 0.1269 0.7595
vn 0.3614 -0.5408 0.7595
vn 0.5408 -0.3614 0.7595
vn -0.5408 0.3614 0.7595
vn -0.1269 -0.6380 0.7595
vn -0.3614 0.5408 0.7595
vn -0.6380 -0.1269 0.7595
vn 0.3614 0.5408 0.7595
vn 0.5408 0.3614 0.7595
vn 0.1269 -0.6380 0.7595
vn 0.6380 -0.1269 0.7595
vn -0.1269 0.6380 0.7595
vn -0.6380 0.1269 0.7595
vn 0.1269 0.6380 0.7595
vn -0.3614 -0.5408 0.7595
vn -0.5408 -0.3614 0.7595
vn 0.0000 -0.5664 0.8241
vn -0.4005 0.4005 0.8241
vn 0.0000 0.5664 0.8241
vn -0.4005 -0.4005 0.8241
vn -0.5664 0.0000 0.8241
vn 0.4005 0.4005 0.8241
vn 0.5664 0.0000 0.8241
vn 0.4005 -0.4005 0.8241
vn 0.3221 -0.1334 0.9373
vn 0.1334 -0.3221 0.9373
vn -0.3221 -0.1334 0.9373
vn 0.3221 0.1334 0.9373
vn -0.1334 0.3221 0.9373
vn -0.1334 -0.3221 0.9373
vn 0.1334 0.3221 0.9373
vn -0.3221 0.1334 0.9373
vn -0.0000 0.0000 1.0000
usemtl Diamond
s off
f 87//1 76//1 88//1 152//1
f 76//2 72//2 79//2 82//2
f 81//3 80//3 73//3 76//3
f 123//4 81//4 76//4 87//4
f 76//5 66//5 1//5 67//5
f 122//6 88//6 76//6 82//6
f 76//7 67//7 34//7 72//7
f 76//8 73//8 31//8 66//8
f 73//9 80//9 71//9 64//9 56//9 54//9
f 139//10 88//10 122//10 125//10 130//10 135//10
f 72//11 34//11 38//11 44//11 46//11 55//11
f 136//12 87//12 152//12 149//12 144//12 142//12
f 55//13 57//13 63//13 70//13 79//13 72//13
f 31//14 73//14 54//14 49//14 45//14 39//14
f 102//15 105//15 109//15 116//15 122//15 82//15
f 102//16 82//16 79//16 85//16 91//16 95//16
f 16//17 13//17 10//17 4//17 1//17 66//17
f 67//18 1//18 3//18 7//18 11//18 17//18
f 152//19 88//19 139//19 143//19 146//19 148//19
f 34//20 67//20 17//20 20//20 26//20 29//20
f 136//21 133//21 129//21 127//21 123//21 87//21
f 99//22 81//22 123//22 115//22 112//22 108//22
f 80//23 81//23 99//23 98//23 92//23 84//23
f 66//24 31//24 28//24 25//24 19//24 16//24
f 6//25 3//25 1//25 2//25
f 37//26 32//26 31//26 39//26
f 48//27 53//27 55//27 46//27
f 22//28 18//28 16//28 19//28
f 132//29 133//29 136//29 137//29
f 86//30 85//30 79//30 78//30
f 150//31 153//31 152//31 148//31
f 107//32 101//32 99//32 108//32
f 97//33 100//33 102//33 95//33
f 96//34 98//34 99//34 101//34
f 124//35 125//35 122//35 120//35
f 21//36 20//36 17//36 15//36
f 117//37 120//37 122//37 116//37
f 114//38 115//38 123//38 121//38
f 14//39 15//39 17//39 11//39
f 68//40 71//40 80//40 74//40
f 141//41 137//41 136//41 142//41
f 152//42 153//42 151//42 149//42
f 27//43 28//43 31//43 32//43
f 12//44 13//44 16//44 18//44
f 30//45 33//45 34//45 29//45
f 126//46 121//46 123//46 127//46
f 83//47 74//47 80//47 84//47
f 69//48 78//48 79//48 70//48
f 106//49 105//49 102//49 100//49
f 134//50 138//50 139//50 135//50
f 40//51 38//51 34//51 33//51
f 59//52 57//52 55//52 53//52
f 47//53 49//53 54//53 52//53
f 5//54 2//54 1//54 4//54
f 58//55 52//55 54//55 56//55
f 140//56 143//56 139//56 138//56
f 65//57 63//57 57//57 59//57
f 110//58 107//58 108//58 112//58
f 9//59 10//59 13//59 12//59
f 147//60 141//60 142//60 144//60
f 24//61 25//61 28//61 27//61
f 24//62 22//62 19//62 25//62
f 42//63 37//63 39//63 45//63
f 90//64 97//64 95//64 91//64
f 43//65 44//65 38//65 40//65
f 8//66 7//66 3//66 6//66
f 62//67 58//67 56//67 64//67
f 128//68 134//68 135//68 130//68
f 90//69 91//69 85//69 86//69
f 145//70 146//70 143//70 140//70
f 8//71 14//71 11//71 7//71
f 9//72 5//72 4//72 10//72
f 65//73 69//73 70//73 63//73
f 89//74 92//74 98//74 96//74
f 89//75 83//75 84//75 92//75
f 111//76 117//76 116//76 109//76
f 131//77 129//77 133//77 132//77
f 62//78 64//78 71//78 68//78
f 147//79 144//79 149//79 151//79
f 111//80 109//80 105//80 106//80
f 42//81 45//81 49//81 47//81
f 23//82 26//82 20//82 21//82
f 43//83 48//83 46//83 44//83
f 110//84 112//84 115//84 114//84
f 145//85 150//85 148//85 146//85
f 23//86 30//86 29//86 26//86
f 131//87 126//87 127//87 129//87
f 128//88 130//88 125//88 124//88
f 78//89 69//89 65//89 59//89 53//89 61//89
f 138//90 134//90 128//90 124//90 120//90 118//90
f 120//91 117//91 111//91 106//91 100//91 93//91
f 52//92 60//92 32//92 37//92 42//92 47//92
f 137//93 141//93 147//93 151//93 153//93 119//93
f 32//94 36//94 18//94 22//94 24//94 27//94
f 101//95 94//95 74//95 83//95 89//95 96//95
f 15//96 35//96 33//96 30//96 23//96 21//96
f 33//97 61//97 53//97 48//97 43//97 40//97
f 138//98 118//98 153//98 150//98 145//98 140//98
f 100//99 97//99 90//99 86//99 78//99 93//99
f 2//100 5//100 9//100 12//100 18//100 36//100
f 74//101 60//101 52//101 58//101 62//101 68//101
f 2//102 35//102 15//102 14//102 8//102 6//102
f 121//103 126//103 131//103 132//103 137//103 119//103
f 101//104 107//104 110//104 114//104 121//104 94//104
f 119//105 153//105 118//105 113//105
f 60//106 51//106 36//106 32//106
f 36//107 41//107 35//107 2//107
f 104//108 94//108 121//108 119//108
f 94//109 77//109 60//109 74//109
f 35//110 50//110 61//110 33//110
f 75//111 93//111 78//111 61//111
f 103//112 118//112 120//112 93//112
f 75//113 103//113 93//113
f 113//114 118//114 103//114
f 77//115 94//115 104//115
f 75//116 61//116 50//116
f 41//117 36//117 51//117
f 113//118 104//118 119//118
f 41//119 50//119 35//119
f 77//120 51//120 60//120
f 77//121 104//121 113//121 103//121 75//121 50//121 41//121 51//121
