<svg width="999" height="125" viewBox="0 0 999 125" fill="none" xmlns="http://www.w3.org/2000/svg">
<g style="mix-blend-mode:screen">
<path d="M584.853 0H549.978V124.816H757.671V96.3657H584.853V0Z" fill="white"/>
<path d="M826.006 0H791.131V124.816H998.823V96.3657H826.006V0Z" fill="white"/>
<path d="M515.108 0H480.233V124.816H515.108V0Z" fill="white"/>
<path d="M446.062 44.7871C446.062 17.8047 432.296 0 379.616 0H239.564V124.816H274.44V86.6373H350.614L402.193 124.816H449.733V123.532L411.554 95.2643C406.782 91.7768 402.009 88.6564 397.971 86.0866V85.536C432.479 81.6814 446.062 67.5477 446.062 44.7871ZM274.44 28.4508H379.799C405.13 28.4508 410.82 34.6916 410.82 44.7871C410.82 55.2496 405.313 60.9398 380.717 60.9398H274.44V28.4508Z" fill="white"/>
<path d="M190.529 58.3701C198.972 54.1483 204.846 46.2555 204.846 33.7739C204.846 16.7034 194.567 0 154.185 0H0V124.816H154.001C194.934 124.816 209.435 110.499 209.435 87.188C209.435 74.5228 202.643 64.2438 190.529 59.2878V58.3701ZM152.9 72.5037C167.584 72.5037 174.559 76.909 174.559 86.0866C174.559 95.2643 168.686 100.037 151.615 100.037H34.8752V72.5037H152.9ZM34.8752 49.9266V24.7797H148.495C165.382 24.7797 170.154 30.4699 170.154 37.812C170.154 46.9897 162.812 49.9266 152.35 49.9266H34.8752Z" fill="white"/>
</g>
</svg>
